<svg width="24" height="24" viewBox="0 0 24 24" fill="none" xmlns="http://www.w3.org/2000/svg">
<path fill-rule="evenodd" clip-rule="evenodd" d="M7.42233 19.8203C7.84433 19.8203 8.18733 20.1633 8.18733 20.5853C8.18733 21.0073 7.84433 21.3493 7.42233 21.3493C7.00033 21.3493 6.65833 21.0073 6.65833 20.5853C6.65833 20.1633 7.00033 19.8203 7.42233 19.8203Z" fill="#474C6D"/>
<path fill-rule="evenodd" clip-rule="evenodd" d="M7.42233 20.8203C7.55431 20.8203 7.65833 20.7139 7.65833 20.5853C7.65833 20.455 7.55261 20.3493 7.42233 20.3493C7.29374 20.3493 7.18733 20.4533 7.18733 20.5853C7.18733 20.7156 7.29204 20.8203 7.42233 20.8203ZM5.65833 20.5853C5.65833 19.6127 6.44634 18.8203 7.42233 18.8203C8.39661 18.8203 9.18733 19.611 9.18733 20.5853C9.18733 21.5613 8.39491 22.3493 7.42233 22.3493C6.44804 22.3493 5.65833 21.5596 5.65833 20.5853Z" fill="#474C6D"/>
<path fill-rule="evenodd" clip-rule="evenodd" d="M18.6747 19.8203C19.0967 19.8203 19.4397 20.1633 19.4397 20.5853C19.4397 21.0073 19.0967 21.3493 18.6747 21.3493C18.2527 21.3493 17.9097 21.0073 17.9097 20.5853C17.9097 20.1633 18.2527 19.8203 18.6747 19.8203Z" fill="#474C6D"/>
<path fill-rule="evenodd" clip-rule="evenodd" d="M18.6747 20.8203C18.805 20.8203 18.9097 20.7156 18.9097 20.5853C18.9097 20.4533 18.8032 20.3493 18.6747 20.3493C18.5461 20.3493 18.4397 20.4533 18.4397 20.5853C18.4397 20.7156 18.5444 20.8203 18.6747 20.8203ZM16.9097 20.5853C16.9097 19.611 17.7004 18.8203 18.6747 18.8203C19.649 18.8203 20.4397 19.611 20.4397 20.5853C20.4397 21.5613 19.6472 22.3493 18.6747 22.3493C17.7021 22.3493 16.9097 21.5613 16.9097 20.5853Z" fill="#474C6D"/>
<path fill-rule="evenodd" clip-rule="evenodd" d="M1.76457 3.0795C1.85876 2.53531 2.37627 2.1705 2.92046 2.26469L5.00046 2.62469C5.44888 2.7023 5.78835 3.0729 5.82642 3.5264L6.04235 6.09904H19.9089C21.3352 6.09904 22.4298 7.36324 22.2256 8.77518L21.2766 15.3333C21.0763 16.7121 19.8955 17.736 18.5019 17.736H7.58992C6.13237 17.736 4.91793 16.62 4.79642 15.1667C4.79641 15.1665 4.79644 15.1669 4.79642 15.1667L3.89805 4.46362L2.57938 4.23539C2.03518 4.1412 1.67038 3.62369 1.76457 3.0795ZM6.21023 8.09904L6.78942 14.9994C6.82415 15.4158 7.17163 15.736 7.58992 15.736H18.5019C18.9004 15.736 19.2396 15.4435 19.2973 15.0463L20.2462 8.48891C20.276 8.28285 20.1166 8.09904 19.9089 8.09904H6.21023Z" fill="#474C6D"/>
</svg>
