<svg width="105" height="32" viewBox="0 0 105 32" fill="none" xmlns="http://www.w3.org/2000/svg">
<path d="M2 23.1333C2 23.5619 2.3626 23.9094 2.80989 23.9094H5.71511C6.16239 23.9094 6.52499 23.5619 6.52499 23.1333V19.6149C6.52499 19.3736 6.8608 19.2916 6.98129 19.5034L9.25706 23.5047C9.39894 23.7542 9.67171 23.9094 9.96817 23.9094H13.3271C13.9668 23.9094 14.354 23.2322 14.0097 22.7155L10.6471 17.6693C10.5944 17.5902 10.5964 17.4886 10.652 17.4115L13.6004 13.3246C13.9718 12.8098 13.5873 12.1071 12.9342 12.1071H9.87389C9.59044 12.1071 9.32762 12.2491 9.18092 12.4815L6.97585 15.9751C6.84855 16.1768 6.52499 16.0903 6.52499 15.8546V8.78329C6.52499 8.35464 6.16239 8.00715 5.71511 8.00715H2.80989C2.3626 8.00715 2 8.35464 2 8.78329V23.1333Z" fill="#9763F6"/>
<path d="M15.7807 23.1333C15.7807 23.5619 16.1433 23.9094 16.5906 23.9094H19.4958C19.9431 23.9094 20.3057 23.5619 20.3057 23.1333V13.7832C20.3057 13.3546 19.9431 13.0071 19.4958 13.0071H16.5906C16.1433 13.0071 15.7807 13.3546 15.7807 13.7832V23.1333ZM15.6408 10.1682C15.6408 11.3976 16.7137 12.3141 18.0432 12.3141C19.3727 12.3141 20.469 11.3976 20.469 10.1682C20.469 8.91647 19.3727 8 18.0432 8C16.7137 8 15.6408 8.91647 15.6408 10.1682Z" fill="#9763F6"/>
<path d="M29.9674 12.5926C29.9674 12.164 29.6007 11.8081 29.1636 11.8991C28.3659 12.0651 27.6422 12.4751 27.1349 13.0747C27.0281 13.2009 26.7719 13.1322 26.7719 12.9697V12.8832C26.7719 12.4546 26.4093 12.1071 25.962 12.1071H23.1734C22.7262 12.1071 22.3636 12.4546 22.3636 12.8832V23.1333C22.3636 23.5619 22.7262 23.9094 23.1734 23.9094H26.0787C26.526 23.9094 26.8885 23.5619 26.8885 23.1333V18.4106C26.8885 16.8682 27.7282 15.9518 29.2443 15.9518C29.6108 15.9518 29.9674 15.6916 29.9674 15.3404V12.5926Z" fill="#9763F6"/>
<path d="M39.0579 13.0648C39.1628 13.1671 39.3797 13.1128 39.4336 12.979C39.6616 12.4126 40.2432 12.1294 41.1784 12.1294C41.7848 12.1294 42.2358 12.1741 42.5312 12.2635C42.8267 12.3529 43.0288 12.5094 43.1377 12.7329C43.2621 12.9565 43.332 13.1576 43.3476 13.3365C43.3787 13.5004 43.3942 13.7537 43.3942 14.0965V21.92C43.3942 22.2627 43.3787 22.5235 43.3476 22.7024C43.332 22.8663 43.2698 23.06 43.161 23.2835C42.9433 23.671 42.4068 23.8647 41.5516 23.8647C40.7119 23.8647 40.1443 23.7678 39.8489 23.5741C39.6736 23.4434 39.544 23.2777 39.4602 23.0769C39.4048 22.9442 39.1913 22.8933 39.0873 22.9957C38.4989 23.575 37.6254 23.8647 36.4668 23.8647C35.1295 23.8647 33.6426 23.5089 32.4919 22.3317C31.3412 21.1544 31.0088 19.558 31.0088 18.0082C31.0088 16.4435 31.4222 14.9248 32.5729 13.7624C33.7391 12.5852 35.0142 12.1518 36.3981 12.1518C36.9268 12.1518 37.5708 12.2412 38.0062 12.42C38.4416 12.5988 38.7448 12.7702 38.9159 12.9341C38.9659 12.9777 39.0132 13.0212 39.0579 13.0648ZM34.9287 18.0306C34.9287 18.5223 35.1308 18.9694 35.5351 19.3718C35.9394 19.7592 36.4292 19.9529 37.0046 19.9529C37.5799 19.9529 38.0542 19.7518 38.4274 19.3494C38.8161 18.9471 39.0105 18.5074 39.0105 18.0306C39.0105 17.5388 38.8239 17.0843 38.4507 16.6671C38.0931 16.2498 37.6032 16.0412 36.9812 16.0412C36.3748 16.0412 35.8772 16.2498 35.4885 16.6671C35.1153 17.0843 34.9287 17.5388 34.9287 18.0306Z" fill="#9763F6"/>
<path d="M45.3466 23.1333C45.3466 23.5619 45.7092 23.9094 46.1565 23.9094H49.0617C49.509 23.9094 49.8716 23.5619 49.8716 23.1333V8.78708C49.8716 8.35843 49.509 8.01093 49.0617 8.01093H46.1565C45.7092 8.01093 45.3466 8.35843 45.3466 8.78708V23.1333Z" fill="#9763F6"/>
<path d="M59.5354 13.0648C59.6403 13.1671 59.8571 13.1128 59.911 12.979C60.1391 12.4126 60.7207 12.1294 61.6558 12.1294C62.2623 12.1294 62.7132 12.1741 63.0087 12.2635C63.3041 12.3529 63.5063 12.5094 63.6151 12.7329C63.7395 12.9565 63.8095 13.1576 63.825 13.3365C63.8561 13.5004 63.8717 13.7537 63.8717 14.0965V21.92C63.8717 22.2627 63.8561 22.5235 63.825 22.7024C63.8095 22.8663 63.7473 23.06 63.6384 23.2835C63.4207 23.671 62.8843 23.8647 62.029 23.8647C61.1894 23.8647 60.6218 23.7678 60.3263 23.5741C60.151 23.4434 60.0215 23.2777 59.9376 23.0769C59.8823 22.9442 59.6687 22.8933 59.5647 22.9957C58.9764 23.575 58.1029 23.8647 56.9442 23.8647C55.607 23.8647 54.12 23.5089 52.9693 22.3317C51.8186 21.1544 51.4863 19.558 51.4863 18.0082C51.4863 16.4435 51.8996 14.9248 53.0503 13.7624C54.2166 12.5852 55.4916 12.1518 56.8756 12.1518C57.4043 12.1518 58.0483 12.2412 58.4837 12.42C58.9191 12.5988 59.2223 12.7702 59.3933 12.9341C59.4433 12.9777 59.4907 13.0212 59.5354 13.0648ZM55.4061 18.0306C55.4061 18.5223 55.6083 18.9694 56.0126 19.3718C56.4168 19.7592 56.9067 19.9529 57.482 19.9529C58.0574 19.9529 58.5316 19.7518 58.9048 19.3494C59.2936 18.9471 59.4879 18.5074 59.4879 18.0306C59.4879 17.5388 59.3013 17.0843 58.9281 16.6671C58.5705 16.2498 58.0807 16.0412 57.4587 16.0412C56.8522 16.0412 56.3547 16.2498 55.9659 16.6671C55.5927 17.0843 55.4061 17.5388 55.4061 18.0306Z" fill="#9763F6"/>
<path d="M74.7614 21.8162C74.4631 22.1021 74.4441 22.5627 74.7784 22.8093C75.7686 23.5397 77.4727 24.2 79.3648 24.2C82.3736 24.2 84.4962 22.8365 84.4962 20.2212C84.4962 16.3094 78.8749 16.7788 78.8749 15.6165C78.8749 15.4153 79.0849 15.2141 79.5747 15.2141C80.0797 15.2141 80.4996 15.3682 80.8524 15.5783C81.1872 15.7776 81.6197 15.8028 81.9286 15.5683L83.6483 14.2631C84.0091 13.9893 84.0626 13.4781 83.7146 13.1895C82.8174 12.4458 81.4964 11.8165 79.668 11.8165C76.8224 11.8165 74.6298 13.3141 74.6298 15.6388C74.6298 19.7965 80.1811 19.3718 80.1811 20.3553C80.1811 20.5788 79.9479 20.78 79.3414 20.78C78.5889 20.78 77.8888 20.5786 77.2808 20.2798C76.9352 20.11 76.5073 20.1431 76.2327 20.4063L74.7614 21.8162Z" fill="#9763F6"/>
<path d="M85.7548 23.1333C85.7548 23.5619 86.1174 23.9094 86.5647 23.9094H89.4699C89.9172 23.9094 90.2798 23.5619 90.2798 23.1333V12.8832C90.2798 12.4546 89.9172 12.1071 89.4699 12.1071H86.5647C86.1174 12.1071 85.7548 12.4546 85.7548 12.8832V23.1333Z" fill="#9763F6"/>
<path d="M99.8249 11.8165C98.7904 11.8165 97.9404 12.1912 97.3641 12.6209C97.148 12.7821 96.746 12.6382 96.746 12.3758C96.746 12.2274 96.6205 12.1071 96.4656 12.1071H93.1475C92.7002 12.1071 92.3376 12.4546 92.3376 12.8832V23.1333C92.3376 23.5619 92.7002 23.9094 93.1475 23.9094H96.0528C96.5 23.9094 96.8627 23.5619 96.8627 23.1333V16.8906C96.8627 16.22 97.2825 15.6388 98.1688 15.6388C98.9152 15.6388 99.475 16.0635 99.475 16.9576V23.1333C99.475 23.5619 99.8376 23.9094 100.285 23.9094H103.19C103.637 23.9094 104 23.5619 104 23.1333V16.3094C104 13.5824 102.74 11.8165 99.8249 11.8165Z" fill="#9763F6"/>
<path d="M73.5129 12.5926C73.5129 12.164 73.1462 11.8081 72.7091 11.8991C71.9114 12.0651 71.1877 12.4751 70.6804 13.0747C70.5736 13.2009 70.3175 13.1322 70.3175 12.9697V12.8832C70.3175 12.4546 69.9549 12.1071 69.5076 12.1071H66.719C66.2717 12.1071 65.9091 12.4546 65.9091 12.8832V23.1333C65.9091 23.5619 66.2717 23.9094 66.719 23.9094H69.6242C70.0715 23.9094 70.4341 23.5619 70.4341 23.1333V18.4106C70.4341 16.8682 71.2738 15.9518 72.7899 15.9518C73.1563 15.9518 73.5129 15.6916 73.5129 15.3404V12.5926Z" fill="#9763F6"/>
</svg>
